<svg width="18" height="19" viewBox="0 0 18 19" fill="none" xmlns="http://www.w3.org/2000/svg">
<g clip-path="url(#clip0_3_36)">
<g clip-path="url(#clip1_3_36)">
<g clip-path="url(#clip2_3_36)">
<path fill-rule="evenodd" clip-rule="evenodd" d="M7.79612 9.42301C7.86947 9.65446 8.65083 10.3664 8.84588 10.5552C8.91639 10.6235 8.96018 10.6451 9.02899 10.7093C9.28319 10.9476 10.168 11.5822 10.6292 11.6511L11.4157 10.9294C11.5169 10.8248 11.5891 10.7872 11.6898 10.6832C11.9343 10.7116 13.1308 11.1626 13.4606 11.2689C13.5209 11.2189 13.4487 11.257 13.5192 11.2462C13.5283 11.245 13.5795 11.2484 13.5852 11.249L14.1715 11.5117C14.267 11.5697 14.329 11.6095 14.4194 11.6556C14.5149 11.7039 14.4876 11.671 14.5695 11.7733C14.8226 12.0895 14.9096 12.537 14.7083 12.9038C14.4547 13.365 14.5587 13.1933 14.2204 13.5533C14.101 13.6801 13.9923 13.7921 13.8388 13.9212L13.4174 14.2021C13.3168 14.2652 13.2872 14.2846 13.1695 14.3175C12.6144 14.4734 11.8689 14.4455 11.3304 14.2937C11.2741 14.2777 11.3236 14.2908 11.2826 14.2794C10.8948 14.1742 10.5024 14.0162 10.1231 13.8637L9.13476 13.3451C9.03866 13.2792 8.9761 13.2905 8.94824 13.1774L8.92947 13.1802C8.8237 13.2217 8.5007 12.9516 8.40573 12.889C8.40232 12.8868 8.39606 12.8828 8.39322 12.8811C8.39038 12.8794 8.38412 12.8754 8.38184 12.8737L8.05486 12.6559C7.99288 12.611 7.94056 12.5308 7.87744 12.4836C7.78304 12.4131 7.72958 12.4165 7.65565 12.3448L7.10234 11.8342L5.9161 10.4841C5.76256 10.2959 5.49187 9.86885 5.37757 9.67721C5.10119 9.21431 4.5837 8.11962 4.49727 7.65274C4.33861 6.79519 3.94054 5.85575 4.62408 5.12387L4.7253 5.03743C4.97665 4.7912 5.15522 4.62401 5.44126 4.4136L5.87288 4.14121C6.1265 3.98255 6.37046 3.77214 6.61783 4.04283C6.75375 4.19068 7.07106 4.71159 7.17399 4.90664C7.26441 5.07724 7.33663 5.2268 7.44297 5.39399L7.81886 6.12245C7.95136 6.3721 8.07476 6.6752 7.96444 7.03858C7.90018 7.25183 7.73015 7.32917 7.63291 7.43324L7.09665 8.01044C7.05173 8.05422 6.98406 8.09972 6.94823 8.15715C6.98747 8.2561 7.04035 8.30842 7.09097 8.38234L7.59594 9.08863C7.65736 9.18133 7.74039 9.30984 7.83706 9.36557C7.80806 9.43154 7.87118 9.40083 7.79668 9.42301H7.79612ZM16.9051 13.2194C17.099 13.0102 17.5727 11.7506 17.6699 11.3423C18.0714 9.65787 18.1197 8.35107 17.6915 6.65302C17.596 6.27429 17.4891 5.99564 17.356 5.64363L16.9545 4.74855C16.896 4.78267 17.0643 4.77073 16.8726 4.77983C16.8641 4.68543 16.4859 4.07013 16.3972 3.93478L15.4885 2.80142L13.7251 1.35416C13.5243 1.21882 13.4788 1.27284 13.4891 1.15968C13.4083 1.07153 12.8192 0.748529 12.6497 0.738293C12.5559 0.794592 12.379 0.676308 12.2949 0.642188L11.7444 0.422682C10.9841 0.187821 9.97526 -0.00495738 9.18083 0.000160647C8.64173 0.00357266 8.16405 0.00527867 7.64314 0.0826177C7.57775 0.0922851 7.46856 0.123562 7.43672 0.130386C6.81232 0.257768 6.19929 0.378894 5.60105 0.648444C5.13019 0.860557 4.55584 1.10281 4.13673 1.4025L3.76084 1.64646C3.68578 1.69821 3.74037 1.65726 3.67326 1.71413L2.6144 2.64163C2.57232 2.6911 2.59962 2.65983 2.58767 2.6712L1.66188 3.76304C1.56805 3.88872 1.5163 3.94673 1.4293 4.09913C0.999382 4.85091 0.895315 4.91005 0.541603 5.90522C0.382945 6.35106 0.286271 6.6098 0.201539 7.11876C0.153202 7.41106 0.0906486 7.66298 0.0599404 7.95414C-0.0708535 9.19156 0.0406057 10.7002 0.493835 11.8734C0.608706 12.1714 0.674103 12.3926 0.80774 12.6764L1.38608 13.75L1.81997 14.3721C1.95759 14.5484 2.09919 14.6912 2.226 14.8765C2.32779 15.0255 2.22145 15.2149 2.14468 15.5533C2.01104 16.1447 1.85011 16.7082 1.73183 17.3048C1.69145 17.5072 1.51005 18.0713 1.51801 18.1999C1.63572 18.1999 2.16515 17.9155 2.31983 17.849C2.60189 17.7284 2.91637 17.5499 3.17738 17.4577L4.32212 16.9516C4.80947 16.7259 4.55072 16.818 5.45661 17.2035C5.95533 17.4162 6.46372 17.588 6.97951 17.7011C8.24195 17.9781 9.74381 18.0037 10.9989 17.6795C11.1257 17.6465 11.5766 17.5055 11.6801 17.5027L11.6523 17.4657C11.6204 17.4316 11.6466 17.4538 11.638 17.4555C11.8314 17.5152 12.3005 17.2752 12.4848 17.1933C12.88 17.0182 13.2787 16.8288 13.6449 16.5996C14.0663 16.3358 14.4689 16.0435 14.8505 15.7108L15.1115 15.4759C15.116 15.4725 15.1217 15.468 15.1257 15.464C15.3139 15.3048 15.4254 15.1256 15.5988 14.9613L16.3989 13.949C16.4837 13.8455 16.5411 13.7062 16.6258 13.5845C16.6799 13.5066 16.6958 13.4736 16.7453 13.3923C16.8203 13.2672 16.7976 13.2473 16.9051 13.2194Z" fill="#FEFEFE"/>
</g>
</g>
</g>
<defs>
<clipPath id="clip0_3_36">
<rect width="18" height="18.2" fill="white"/>
</clipPath>
<clipPath id="clip1_3_36">
<rect width="18" height="18.2" fill="white"/>
</clipPath>
<clipPath id="clip2_3_36">
<rect width="17.9847" height="18.2" fill="white" transform="translate(0.0078125)"/>
</clipPath>
</defs>
</svg>
