<svg width="107" height="98" viewBox="0 0 107 98" fill="none" xmlns="http://www.w3.org/2000/svg">
<path d="M59.8068 1.46838L35.8303 10.2021V35.4905L47.3624 38.6875V14.9464L47.3877 14.9374C51.5881 13.5124 55.7182 11.8051 59.9185 10.3801L72.7108 5.73463L72.6585 42.5602H71.6544L71.6364 7.30527L48.3666 15.6617V20.5623C51.4637 21.5183 54.559 22.4744 57.6561 23.4268V23.4556C57.6327 28.6886 57.6056 33.9199 57.5804 39.153L57.5642 42.5512C49.9999 40.4541 42.3887 38.3479 34.8262 36.2453V35.9488V9.50309C43.0521 6.50917 51.278 3.51524 59.5021 0.51593L59.8428 1.4558L59.8068 1.46838ZM48.3666 21.6064V38.9643L56.5709 41.2376L56.6538 24.1618L48.3684 21.6064H48.3666Z" fill="white"/>
<path d="M14.4644 94.4057H14.7312V95.4912H16.177V94.4057H16.4438V96.8947H16.177V95.7392H14.7312V96.8947H14.4644V94.4057ZM18.461 96.9378C18.2826 96.9378 18.1167 96.9055 17.9617 96.8408C17.8066 96.7761 17.6732 96.6862 17.5579 96.573C17.4443 96.4598 17.3542 96.3232 17.2893 96.1651C17.2244 96.0069 17.1919 95.8362 17.1919 95.6511C17.1919 95.466 17.2244 95.2953 17.2893 95.1372C17.3542 94.979 17.4443 94.8442 17.5579 94.7292C17.6714 94.616 17.8066 94.5261 17.9617 94.4615C18.1167 94.3968 18.2826 94.3644 18.461 94.3644C18.6395 94.3644 18.8054 94.3968 18.9604 94.4615C19.1154 94.5261 19.2488 94.616 19.3642 94.7292C19.4778 94.8424 19.5679 94.979 19.6328 95.1372C19.6977 95.2953 19.7302 95.466 19.7302 95.6511C19.7302 95.8362 19.6977 96.0069 19.6328 96.1651C19.5679 96.3232 19.4778 96.458 19.3642 96.573C19.2506 96.6862 19.1154 96.7761 18.9604 96.8408C18.8054 96.9055 18.6395 96.9378 18.461 96.9378ZM18.461 96.6826C18.6089 96.6826 18.7441 96.6575 18.8667 96.6072C18.9892 96.5568 19.0938 96.4868 19.1803 96.3951C19.2669 96.3035 19.3336 96.1956 19.3822 96.068C19.4291 95.9404 19.4543 95.8021 19.4543 95.6493C19.4543 95.4966 19.4309 95.3546 19.3822 95.2288C19.3354 95.103 19.2669 94.9952 19.1803 94.9035C19.0938 94.8119 18.9892 94.7418 18.8667 94.6915C18.7441 94.6412 18.6089 94.616 18.461 94.616C18.3132 94.616 18.178 94.6412 18.0554 94.6915C17.9328 94.7418 17.8283 94.8119 17.7417 94.9035C17.6552 94.9952 17.5885 95.103 17.5398 95.2288C17.493 95.3546 17.4677 95.4948 17.4677 95.6493C17.4677 95.8039 17.4912 95.9404 17.5398 96.068C17.5867 96.1956 17.6552 96.3035 17.7417 96.3951C17.8283 96.4868 17.9328 96.5568 18.0554 96.6072C18.178 96.6575 18.3132 96.6826 18.461 96.6826ZM21.459 96.9378C21.3076 96.9378 21.1688 96.9127 21.0426 96.8605C20.9182 96.8102 20.81 96.7383 20.7217 96.6485C20.6333 96.5586 20.563 96.4526 20.5144 96.3304C20.4657 96.2082 20.4404 96.077 20.4404 95.9333V94.4039H20.7073V95.9333C20.7073 96.0357 20.7253 96.1309 20.7595 96.2208C20.7938 96.3106 20.8425 96.3897 20.9074 96.458C20.9723 96.5263 21.0498 96.5802 21.1435 96.6197C21.2355 96.6593 21.3418 96.6808 21.4572 96.6808C21.5726 96.6808 21.6789 96.6611 21.7709 96.6197C21.8628 96.5802 21.9421 96.5263 22.007 96.458C22.0719 96.3897 22.1206 96.3106 22.1549 96.2208C22.1891 96.1309 22.2071 96.0339 22.2071 95.9333V94.4039H22.4739V95.9333C22.4739 96.0752 22.4487 96.2082 22.4 96.3304C22.3514 96.4526 22.2828 96.5586 22.1927 96.6485C22.1044 96.7383 21.9962 96.8084 21.8718 96.8605C21.7474 96.9109 21.6086 96.9378 21.4554 96.9378H21.459ZM24.064 96.9378C23.8945 96.9378 23.7286 96.9181 23.5628 96.8767C23.3969 96.8372 23.2509 96.7707 23.1229 96.6808L23.2221 96.5029C23.2978 96.5389 23.3753 96.5676 23.4528 96.591C23.5303 96.6143 23.6061 96.6341 23.68 96.6485C23.7539 96.6629 23.8242 96.6736 23.8927 96.679C23.9612 96.6844 24.0225 96.688 24.0766 96.688C24.1613 96.688 24.2514 96.6808 24.3416 96.6665C24.4335 96.6521 24.5164 96.6287 24.5922 96.5964C24.6679 96.564 24.731 96.5209 24.7815 96.4688C24.8319 96.4149 24.8572 96.3502 24.8572 96.2711C24.8572 96.192 24.8319 96.1255 24.7833 96.0698C24.7346 96.0141 24.6733 95.9674 24.6012 95.9279C24.5291 95.8883 24.4497 95.856 24.365 95.8308C24.2803 95.8039 24.2046 95.7805 24.1343 95.7589C24.0351 95.7302 23.9269 95.6978 23.8116 95.6619C23.6962 95.626 23.5898 95.5792 23.4907 95.5235C23.3915 95.4678 23.3086 95.3995 23.2419 95.3169C23.1752 95.2342 23.1428 95.1336 23.1428 95.0132C23.1428 94.8928 23.1716 94.7975 23.2311 94.7166C23.2906 94.634 23.3681 94.5675 23.4636 94.5154C23.5592 94.4632 23.6656 94.4237 23.7827 94.4003C23.8999 94.3752 24.0171 94.3626 24.1343 94.3626C24.3037 94.3626 24.4588 94.3824 24.603 94.4237C24.7472 94.4632 24.8896 94.5261 25.0338 94.6088L24.9491 94.7903C24.8229 94.7364 24.6931 94.6933 24.5561 94.6609C24.4191 94.6286 24.2821 94.6124 24.1415 94.6124C24.0459 94.6124 23.954 94.6214 23.8657 94.6394C23.7773 94.6573 23.698 94.6825 23.6295 94.7184C23.561 94.7526 23.5069 94.7939 23.4673 94.8442C23.4276 94.8945 23.406 94.9503 23.406 95.0114C23.406 95.0832 23.433 95.1443 23.4853 95.1982C23.5376 95.2522 23.6007 95.2971 23.6764 95.3366C23.7521 95.3762 23.8296 95.4085 23.9107 95.4319C23.9918 95.457 24.0604 95.4768 24.1144 95.4948C24.228 95.5289 24.3452 95.5631 24.4642 95.6008C24.5831 95.6385 24.6913 95.6853 24.7887 95.7428C24.886 95.8003 24.9653 95.8704 25.0284 95.9548C25.0897 96.0393 25.1204 96.1435 25.1204 96.2693C25.1204 96.3951 25.0879 96.5047 25.023 96.591C24.9581 96.6772 24.8734 96.7455 24.7706 96.7976C24.6679 96.848 24.5543 96.8839 24.4299 96.9055C24.3055 96.927 24.1829 96.9378 24.064 96.9378ZM25.8234 94.4057H27.5072V94.6483H26.0794V95.4948H27.1845V95.7374H26.0794V96.6557H27.5415V96.8983H25.8216V94.4093L25.8234 94.4057ZM29.9914 94.4057H30.2762L31.3651 96.8947H31.0802L30.781 96.201H29.4902L29.191 96.8947H28.9061L29.995 94.4057H29.9914ZM29.5912 95.9602H30.6764L30.1338 94.6969L29.5912 95.9602ZM31.9546 94.4057H33.0849C33.1876 94.4057 33.285 94.4255 33.3769 94.4668C33.4689 94.5064 33.55 94.5603 33.6203 94.6286C33.6888 94.6969 33.7447 94.7741 33.7861 94.8658C33.8276 94.9556 33.8492 95.0527 33.8492 95.1533C33.8492 95.245 33.8312 95.3348 33.797 95.4193C33.7627 95.5055 33.714 95.581 33.6545 95.6493C33.5933 95.7176 33.5211 95.7715 33.4382 95.8128C33.3553 95.8542 33.2652 95.8775 33.1714 95.8829L33.9105 96.8965H33.6041L32.883 95.9009H32.2124V96.8965H31.9564V94.4075L31.9546 94.4057ZM33.0849 95.6583C33.157 95.6583 33.2219 95.6457 33.2832 95.6188C33.3445 95.5936 33.3968 95.5559 33.44 95.5109C33.4833 95.4642 33.5193 95.4103 33.5446 95.3492C33.5716 95.2881 33.5842 95.2216 33.5842 95.1533C33.5842 95.085 33.5716 95.0185 33.5446 94.9574C33.5193 94.8963 33.4833 94.8424 33.44 94.7957C33.3968 94.749 33.3445 94.713 33.2832 94.6879C33.2219 94.6627 33.157 94.6483 33.0849 94.6483H32.2106V95.6583H33.0849ZM34.5631 94.4057H34.8299V95.4912H36.2757V94.4057H36.5425V96.8947H36.2757V95.7392H34.8299V96.8947H34.5631V94.4057ZM37.4115 94.4057H37.6783V96.8947H37.4115V94.4057ZM38.3327 94.4057H40.4905V94.6555H39.5387V96.8965H39.2719V94.6555H38.3327V94.4057ZM41.1449 94.4057H42.8287V94.6483H41.4009V95.4948H42.5078V95.7374H41.4009V96.6557H42.863V96.8983H41.1431V94.4093L41.1449 94.4057ZM44.6314 96.9378C44.4602 96.9378 44.2997 96.9055 44.1483 96.8408C43.9969 96.7761 43.8653 96.6862 43.7499 96.573C43.6363 96.4598 43.5462 96.3232 43.4813 96.1651C43.4164 96.0069 43.3839 95.8362 43.3839 95.6511C43.3839 95.466 43.4164 95.2953 43.4813 95.1372C43.5462 94.979 43.6363 94.8442 43.7499 94.7292C43.8635 94.616 43.9987 94.5261 44.1519 94.4615C44.3052 94.3968 44.4692 94.3644 44.6423 94.3644C44.8334 94.3644 44.9992 94.3878 45.1416 94.4363C45.284 94.483 45.4084 94.5423 45.5166 94.6106L45.4301 94.7921C45.1615 94.6735 44.9073 94.6142 44.6693 94.6142C44.5197 94.6142 44.3827 94.6394 44.2583 94.6915C44.1339 94.7418 44.0275 94.8137 43.9392 94.9053C43.8509 94.997 43.7806 95.1066 43.7319 95.2324C43.6832 95.36 43.658 95.5002 43.658 95.6547C43.658 95.8092 43.6832 95.9458 43.7337 96.0752C43.7842 96.2028 43.8527 96.3124 43.9428 96.4041C44.0311 96.4957 44.1375 96.5658 44.2601 96.6179C44.3827 96.6683 44.5179 96.6952 44.6657 96.6952C44.8135 96.6952 44.9415 96.679 45.0731 96.6485C45.2047 96.6179 45.3345 96.5712 45.4661 96.5101L45.5653 96.688C45.4679 96.7527 45.3453 96.8102 45.1957 96.8641C45.0479 96.918 44.8586 96.945 44.6296 96.945L44.6314 96.9378ZM46.0664 94.4057H48.2243V94.6555H47.2725V96.8965H47.0057V94.6555H46.0682V94.4057H46.0664ZM49.8594 96.9378C49.708 96.9378 49.5692 96.9127 49.443 96.8605C49.3186 96.8102 49.2104 96.7383 49.1221 96.6485C49.0337 96.5586 48.9634 96.4526 48.9148 96.3304C48.8661 96.2082 48.8409 96.077 48.8409 95.9333V94.4039H49.1077V95.9333C49.1077 96.0357 49.1257 96.1309 49.1599 96.2208C49.1942 96.3106 49.2429 96.3897 49.3078 96.458C49.3727 96.5263 49.4502 96.5802 49.5439 96.6197C49.6359 96.6593 49.7422 96.6808 49.8576 96.6808C49.973 96.6808 50.0793 96.6611 50.1713 96.6197C50.2632 96.5802 50.3425 96.5263 50.4074 96.458C50.4723 96.3897 50.521 96.3106 50.5553 96.2208C50.5895 96.1309 50.6075 96.0339 50.6075 95.9333V94.4039H50.8743V95.9333C50.8743 96.0752 50.8491 96.2082 50.8004 96.3304C50.7518 96.4526 50.6833 96.5586 50.5931 96.6485C50.5048 96.7383 50.3966 96.8084 50.2722 96.8605C50.1478 96.9109 50.009 96.9378 49.8558 96.9378H49.8594ZM51.709 94.4057H52.8393C52.9421 94.4057 53.0394 94.4255 53.1314 94.4668C53.2233 94.5064 53.3044 94.5603 53.3747 94.6286C53.4433 94.6969 53.4991 94.7741 53.5406 94.8658C53.5821 94.9556 53.6037 95.0527 53.6037 95.1533C53.6037 95.245 53.5857 95.3348 53.5514 95.4193C53.5172 95.5055 53.4703 95.581 53.409 95.6493C53.3477 95.7176 53.2756 95.7715 53.1927 95.8128C53.1097 95.8542 53.0196 95.8775 52.9259 95.8829L53.665 96.8965H53.3585L52.6374 95.9009H51.9668V96.8965H51.7108V94.4075L51.709 94.4057ZM52.8393 95.6583C52.9114 95.6583 52.9763 95.6457 53.0376 95.6188C53.0989 95.5936 53.1512 95.5559 53.1945 95.5109C53.2377 95.4642 53.2738 95.4103 53.299 95.3492C53.3261 95.2881 53.3387 95.2216 53.3387 95.1533C53.3387 95.085 53.3261 95.0185 53.299 94.9574C53.2738 94.8963 53.2377 94.8424 53.1945 94.7957C53.1512 94.749 53.0989 94.713 53.0376 94.6879C52.9763 94.6627 52.9114 94.6483 52.8393 94.6483H51.965V95.6583H52.8393ZM54.3176 94.4057H56.0013V94.6483H54.5736V95.4948H55.6805V95.7374H54.5736V96.6557H56.0356V96.8983H54.3158V94.4093L54.3176 94.4057ZM57.4688 97.1624L58.7523 94.1398H59.0029L57.7194 97.1624H57.4688ZM60.4848 94.4057H60.7516V96.8947H60.4848V94.4057ZM61.6205 94.4057H61.835L63.4124 96.4257V94.4057H63.6684V96.8947H63.4539L61.8765 94.8748V96.8947H61.6205V94.4057ZM64.3228 94.4057H66.4807V94.6555H65.5288V96.8965H65.262V94.6555H64.3246V94.4057H64.3228ZM67.1351 94.4057H68.8188V94.6483H67.3911V95.4948H68.498V95.7374H67.3911V96.6557H68.8531V96.8983H67.1333V94.4093L67.1351 94.4057ZM69.5652 94.4057H70.6955C70.7983 94.4057 70.8956 94.4255 70.9875 94.4668C71.0795 94.5064 71.1606 94.5603 71.2309 94.6286C71.2994 94.6969 71.3553 94.7741 71.3968 94.8658C71.4382 94.9556 71.4599 95.0527 71.4599 95.1533C71.4599 95.245 71.4418 95.3348 71.4076 95.4193C71.3733 95.5055 71.3247 95.581 71.2652 95.6493C71.2039 95.7176 71.1318 95.7715 71.0488 95.8128C70.9659 95.8542 70.8758 95.8775 70.782 95.8829L71.5212 96.8965H71.2147L70.4936 95.9009H69.823V96.8965H69.567V94.4075L69.5652 94.4057ZM70.6955 95.6583C70.7676 95.6583 70.8325 95.6457 70.8938 95.6188C70.9551 95.5936 71.0074 95.5559 71.0506 95.5109C71.0939 95.4642 71.13 95.4103 71.1552 95.3492C71.1822 95.2881 71.1949 95.2216 71.1949 95.1533C71.1949 95.085 71.1822 95.0185 71.1552 94.9574C71.13 94.8963 71.0939 94.8424 71.0506 94.7957C71.0074 94.749 70.9551 94.713 70.8938 94.6879C70.8325 94.6627 70.7676 94.6483 70.6955 94.6483H69.8212V95.6583H70.6955ZM72.1737 94.4057H72.4406V96.8947H72.1737V94.4057ZM74.4578 96.9378C74.2793 96.9378 74.1135 96.9055 73.9585 96.8408C73.8034 96.7761 73.67 96.6862 73.5546 96.573C73.4411 96.4598 73.3509 96.3232 73.286 96.1651C73.2211 96.0069 73.1887 95.8362 73.1887 95.6511C73.1887 95.466 73.2211 95.2953 73.286 95.1372C73.3509 94.979 73.4411 94.8442 73.5546 94.7292C73.6682 94.616 73.8034 94.5261 73.9585 94.4615C74.1135 94.3968 74.2793 94.3644 74.4578 94.3644C74.6363 94.3644 74.8021 94.3968 74.9572 94.4615C75.1122 94.5261 75.2456 94.616 75.361 94.7292C75.4746 94.8424 75.5647 94.979 75.6296 95.1372C75.6945 95.2953 75.727 95.466 75.727 95.6511C75.727 95.8362 75.6945 96.0069 75.6296 96.1651C75.5647 96.3232 75.4746 96.458 75.361 96.573C75.2474 96.6862 75.1122 96.7761 74.9572 96.8408C74.8021 96.9055 74.6363 96.9378 74.4578 96.9378ZM74.4578 96.6826C74.6056 96.6826 74.7408 96.6575 74.8634 96.6072C74.986 96.5568 75.0906 96.4868 75.1771 96.3951C75.2636 96.3035 75.3304 96.1956 75.379 96.068C75.4259 95.9404 75.4511 95.8021 75.4511 95.6493C75.4511 95.4966 75.4277 95.3546 75.379 95.2288C75.3322 95.103 75.2636 94.9952 75.1771 94.9035C75.0906 94.8119 74.986 94.7418 74.8634 94.6915C74.7408 94.6412 74.6056 94.616 74.4578 94.616C74.31 94.616 74.1748 94.6412 74.0522 94.6915C73.9296 94.7418 73.8251 94.8119 73.7385 94.9035C73.652 94.9952 73.5853 95.103 73.5366 95.2288C73.4897 95.3546 73.4645 95.4948 73.4645 95.6493C73.4645 95.8039 73.4879 95.9404 73.5366 96.068C73.5835 96.1956 73.652 96.3035 73.7385 96.3951C73.8251 96.4868 73.9296 96.5568 74.0522 96.6072C74.1748 96.6575 74.31 96.6826 74.4578 96.6826ZM76.4751 94.4057H77.6054C77.7082 94.4057 77.8055 94.4255 77.8975 94.4668C77.9894 94.5064 78.0705 94.5603 78.1408 94.6286C78.2093 94.6969 78.2652 94.7741 78.3067 94.8658C78.3481 94.9556 78.3698 95.0527 78.3698 95.1533C78.3698 95.245 78.3517 95.3348 78.3175 95.4193C78.2832 95.5055 78.2346 95.581 78.1751 95.6493C78.1138 95.7176 78.0417 95.7715 77.9588 95.8128C77.8758 95.8542 77.7857 95.8775 77.6919 95.8829L78.4311 96.8965H78.1246L77.4035 95.9009H76.7329V96.8965H76.4769V94.4075L76.4751 94.4057ZM77.6054 95.6583C77.6775 95.6583 77.7424 95.6457 77.8037 95.6188C77.865 95.5936 77.9173 95.5559 77.9605 95.5109C78.0038 95.4642 78.0399 95.4103 78.0651 95.3492C78.0921 95.2881 78.1048 95.2216 78.1048 95.1533C78.1048 95.085 78.0921 95.0185 78.0651 94.9574C78.0399 94.8963 78.0038 94.8424 77.9605 94.7957C77.9173 94.749 77.865 94.713 77.8037 94.6879C77.7424 94.6627 77.6775 94.6483 77.6054 94.6483H76.7311V95.6583H77.6054ZM80.9567 96.8965H80.0121V94.4075H80.9567C81.1352 94.4075 81.301 94.4381 81.4561 94.501C81.6111 94.5639 81.7445 94.6501 81.8599 94.7598C81.9734 94.8694 82.0636 95.0024 82.1285 95.1551C82.1934 95.3079 82.2258 95.4732 82.2258 95.6511C82.2258 95.829 82.1934 95.9944 82.1285 96.1471C82.0636 96.2999 81.9734 96.431 81.8599 96.5425C81.7463 96.6521 81.6111 96.7401 81.4561 96.8012C81.301 96.8641 81.1352 96.8947 80.9567 96.8947V96.8965ZM80.2789 96.6467H80.9567C81.1045 96.6467 81.2397 96.6215 81.3623 96.573C81.4849 96.5245 81.5895 96.4562 81.676 96.3663C81.7625 96.2783 81.8292 96.1723 81.8779 96.0501C81.9266 95.9279 81.95 95.7949 81.95 95.6493C81.95 95.5038 81.9266 95.369 81.8779 95.2468C81.831 95.1264 81.7625 95.0203 81.676 94.9323C81.5895 94.8442 81.4849 94.7741 81.3623 94.7256C81.2397 94.6771 81.1045 94.6519 80.9567 94.6519H80.2789V96.6431V96.6467ZM82.974 94.4057H84.6577V94.6483H83.23V95.4948H84.3368V95.7374H83.23V96.6557H84.692V96.8983H82.9722V94.4093L82.974 94.4057ZM86.1612 96.9378C85.9918 96.9378 85.8259 96.9181 85.6601 96.8767C85.4942 96.8372 85.3482 96.7707 85.2202 96.6808L85.3193 96.5029C85.3951 96.5389 85.4726 96.5676 85.5501 96.591C85.6276 96.6143 85.7033 96.6341 85.7772 96.6485C85.8512 96.6629 85.9215 96.6736 85.99 96.679C86.0585 96.6844 86.1198 96.688 86.1738 96.688C86.2604 96.688 86.3487 96.6808 86.4407 96.6665C86.5326 96.6521 86.6155 96.6287 86.6912 96.5964C86.767 96.564 86.83 96.5209 86.8805 96.4688C86.931 96.4149 86.9562 96.3502 86.9562 96.2711C86.9562 96.192 86.931 96.1255 86.8823 96.0698C86.8337 96.0141 86.7724 95.9674 86.7002 95.9279C86.6281 95.8883 86.5488 95.856 86.4641 95.8308C86.3794 95.8039 86.3036 95.7805 86.2333 95.7589C86.1342 95.7302 86.026 95.6978 85.9106 95.6619C85.7953 95.626 85.6889 95.5792 85.5898 95.5235C85.4906 95.4678 85.4077 95.3995 85.341 95.3169C85.2743 95.2342 85.2418 95.1336 85.2418 95.0132C85.2418 94.8928 85.2707 94.7975 85.3302 94.7166C85.3896 94.634 85.4672 94.5675 85.5627 94.5154C85.6583 94.4632 85.7646 94.4237 85.8818 94.4003C85.999 94.3752 86.1162 94.3626 86.2333 94.3626C86.4028 94.3626 86.5578 94.3824 86.7021 94.4237C86.8463 94.4632 86.9887 94.5261 87.1329 94.6088L87.0464 94.7903C86.9202 94.7364 86.7904 94.6933 86.6534 94.6609C86.5182 94.6286 86.3794 94.6124 86.2387 94.6124C86.1432 94.6124 86.0513 94.6214 85.9629 94.6394C85.8746 94.6573 85.7953 94.6825 85.7268 94.7184C85.6583 94.7526 85.6042 94.7939 85.5645 94.8442C85.5249 94.8945 85.5032 94.9503 85.5032 95.0114C85.5032 95.0832 85.5303 95.1443 85.5826 95.1982C85.6348 95.2522 85.6979 95.2971 85.7736 95.3366C85.8493 95.3762 85.9269 95.4085 86.008 95.4319C86.0891 95.457 86.1576 95.4768 86.2117 95.4948C86.3253 95.5289 86.4425 95.5631 86.5614 95.6008C86.6804 95.6385 86.7886 95.6853 86.8859 95.7428C86.9833 95.8003 87.0626 95.8704 87.1257 95.9548C87.187 96.0393 87.2176 96.1435 87.2176 96.2693C87.2176 96.3951 87.1852 96.5047 87.1203 96.591C87.0554 96.6772 86.9707 96.7455 86.8679 96.7976C86.7651 96.848 86.6516 96.8839 86.5272 96.9055C86.4028 96.927 86.2802 96.9378 86.1612 96.9378ZM87.9207 94.4057H88.1875V96.8947H87.9207V94.4057ZM90.2192 96.6898C90.3508 96.6898 90.4716 96.6701 90.5816 96.6305C90.6915 96.591 90.7889 96.5353 90.87 96.4598C90.9511 96.3843 91.016 96.2927 91.0629 96.1848C91.1098 96.0752 91.1332 95.9494 91.1332 95.8075H90.1705V95.5648H91.391V95.7715C91.391 95.9422 91.3639 96.0986 91.3117 96.2405C91.2576 96.3825 91.1801 96.5047 91.0773 96.6089C90.9745 96.7114 90.8502 96.7923 90.7023 96.8516C90.5545 96.9091 90.385 96.9378 90.1958 96.9378C90.0227 96.9378 89.8587 96.9055 89.7054 96.8408C89.5522 96.7761 89.4188 96.6862 89.3034 96.573C89.1898 96.4598 89.0997 96.3232 89.0348 96.1651C88.9699 96.0069 88.9374 95.8362 88.9374 95.6511C88.9374 95.466 88.9699 95.2953 89.0348 95.1372C89.0997 94.979 89.1898 94.8442 89.3034 94.7292C89.417 94.616 89.5522 94.5261 89.7054 94.4615C89.8587 94.3968 90.0227 94.3644 90.1958 94.3644C90.3868 94.3644 90.5527 94.3878 90.6951 94.4363C90.8375 94.483 90.9619 94.5423 91.0701 94.6106L90.9836 94.7921C90.715 94.6735 90.4608 94.6142 90.2228 94.6142C90.0732 94.6142 89.9362 94.6394 89.8118 94.6915C89.6874 94.7418 89.581 94.8137 89.4927 94.9053C89.4044 94.997 89.3341 95.1066 89.2854 95.2324C89.2367 95.36 89.2115 95.5002 89.2115 95.6547C89.2115 95.8092 89.2367 95.9458 89.2872 96.0752C89.3377 96.2028 89.4062 96.3124 89.4963 96.4041C89.5846 96.4957 89.691 96.5658 89.8136 96.6179C89.9362 96.6683 90.0714 96.6952 90.2192 96.6952V96.6898ZM92.1355 94.4057H92.35L93.9274 96.4257V94.4057H94.1834V96.8947H93.9689L92.3915 94.8748V96.8947H92.1355V94.4057Z" fill="white"/>
<path d="M39.8164 83.7635V53.7721L41.3974 53.1863V82.9745L39.8164 83.8299V83.7635ZM23.6278 80.5018C27.1233 78.3075 29.6381 74.4384 29.7192 69.4282L14.8989 69.4318L14.9043 68.7022C20.1575 68.7022 25.6757 68.6591 30.9325 68.7004C30.9289 68.8496 30.9271 68.9987 30.9235 69.1461C30.9036 74.0718 28.5529 78.5394 24.2569 81.2907C21.6664 82.9781 18.8523 83.7724 16.0923 83.8228C13.39 83.8713 10.7381 83.2082 8.39639 81.9736C6.05462 80.739 4.02113 78.9329 2.5555 76.6974C1.07184 74.4349 0.170471 71.7339 0.114586 68.7381C0.0442794 64.9104 1.31702 61.5301 3.40279 58.8938C5.6454 56.058 8.82905 54.0848 12.2867 53.3498C14.2445 52.9329 16.2762 52.9401 18.1799 53.2653C20.2296 53.614 22.1351 54.3328 23.644 55.2871C24.5093 55.8334 25.1475 56.3168 25.7153 56.8218C26.2832 57.3267 26.7771 57.8533 27.3576 58.4894C27.747 58.9171 28.4357 59.8552 29.0017 60.8131C29.42 61.5211 29.7715 62.2399 29.8905 62.779L29.9013 62.8276L28.5024 62.806C27.2188 59.3071 23.4944 56.1982 20.217 55.0265C18.3998 54.2519 16.5195 53.959 14.5329 54.0668C14.1111 54.0902 13.691 54.1351 13.2728 54.1998C10.1198 54.6994 7.1543 56.412 5.03067 59.0304C2.90704 61.6505 1.62889 65.1763 1.85423 69.3024C1.88668 69.9134 1.95338 70.537 2.05434 71.1732C3.36673 76.9238 6.83341 80.3832 10.886 81.8693C12.9844 82.6385 15.2414 82.8811 17.4371 82.6385C19.6329 82.3959 21.7691 81.6681 23.6278 80.5018Z" fill="white"/>
<path d="M51.6062 68.5483L55.1036 68.5393C55.5975 68.5393 56.0987 68.5339 56.6071 68.5231C57.1208 68.5123 57.6472 68.4961 58.1881 68.4746C58.7253 68.453 59.2607 68.4189 59.7979 68.3739C60.3351 68.3272 60.8687 68.2679 61.3969 68.1978C63.3764 67.9319 65.8407 67.2795 67.6002 65.867C68.9342 64.796 69.8608 63.2271 69.8608 61.4121C69.8608 59.0543 68.8981 57.3525 67.3442 56.1844C65.5342 54.824 62.9203 54.1861 60.0881 54.08C57.8113 53.9956 55.1522 54.0225 52.7636 54.0459L51.6026 54.0567L51.6062 68.5483ZM50.0198 68.6273C50.0072 63.4176 50.0144 58.2097 50.0036 53L58.9488 53.0305C59.5131 53.0323 60.1188 53.0539 60.7642 53.097C61.3951 53.1402 62.0639 53.2031 62.7724 53.2875C63.4917 53.3738 64.1912 53.5068 64.8708 53.6901C65.5505 53.8716 66.2121 54.1034 66.8556 54.3819C67.4992 54.6623 68.0923 55.0037 68.635 55.4099C69.1776 55.816 69.6679 56.2832 70.1096 56.8134C70.5513 57.3453 70.883 57.9707 71.1029 58.6895C71.3228 59.4066 71.4328 60.217 71.4328 61.121C71.4328 61.8236 71.3607 62.4652 71.2165 63.0474C71.0723 63.6297 70.8559 64.1508 70.5657 64.6109C70.2772 65.0709 69.9437 65.4896 69.567 65.8652C69.1902 66.2426 68.7684 66.5769 68.3014 66.8716C67.3262 67.488 66.2391 67.9175 65.098 68.214C63.1059 68.7316 60.0683 69.2365 57.9249 69.2581L51.6135 69.2617L51.599 82.6247L50 83.5161C50 78.5544 50.0288 73.589 50.0162 68.6273H50.0198Z" fill="white"/>
<path d="M80.2608 83.5783L91.4396 56.8361C91.6181 56.4084 91.8867 55.686 92.1553 54.9618C92.3987 54.3076 92.6421 53.6517 92.8187 53.2132L92.8295 53.188C93.4569 53.188 94.0824 53.188 94.7098 53.188C98.7425 63.0342 102.772 72.884 106.795 82.7355C106.35 83.0536 105.905 83.3717 105.46 83.6897L100.466 71.7356L86.3325 71.7302L81.3857 83.6628C80.9999 83.6664 80.6123 83.6628 80.2266 83.6628L80.2626 83.5765L80.2608 83.5783ZM93.4767 54.7587H93.3577L86.6281 70.9988L100.161 70.9952L93.4767 54.7587Z" fill="white"/>
<path d="M61.7665 68.3464L74.2145 83.67H72.8606L60.9463 69.0113L61.7665 68.3464Z" fill="white"/>
</svg>
