<svg width="82" height="82" viewBox="0 0 82 82" fill="none" xmlns="http://www.w3.org/2000/svg">
  <g clip-path="url(#clip0_111_1599)">
    <path d="M36.3354 51.531C35.0174 48.8054 33.4961 46.1984 31.7716 43.7103C29.2116 39.7802 26.3553 35.3693 24.5599 30.076H0V57.5221H27.2795V84.8017H30.9311C32.3396 82.884 33.5662 80.8571 34.6117 78.72C35.658 76.5837 36.5054 74.3706 37.1554 72.0823C39.2421 64.9192 38.9432 57.429 36.3354 51.531Z" fill="#8DA3DD" />
    <path d="M82.0051 30.0752H54.7264V2.79654H54.0978C52.0298 3.55846 50.1378 4.63129 48.4235 6.01589C43.2174 10.2449 40.385 16.5879 42.2342 23.1821C43.1627 26.492 45.2401 29.6797 47.6437 33.3714C49.9397 36.7052 51.9453 40.2048 53.6604 43.8708C54.6026 46.0396 55.3696 48.269 55.9607 50.5581C56.5518 52.8473 56.9609 55.1689 57.1873 57.5221H82.0051V30.0752Z" fill="#ACF7E0" />
    <path d="M41.8158 1.15996C42.2975 0.65173 42.4205 0.475771 42.4068 0.415126C42.3949 0.356188 42.2394 0.394626 42.2215 0.367292L42.1634 0.274188L42.1207 0.205C42.107 0.183646 42.113 0.154605 42.0464 0.158021C41.9541 0.171688 41.8653 0.196459 41.7799 0.232334C41.6355 0.288709 41.4946 0.352771 41.3571 0.423667C41.1862 0.509938 40.9454 0.646605 40.7925 0.708959C40.6703 0.757646 40.6524 0.745688 40.6379 0.727751C40.6063 0.688459 40.6848 0.597917 40.6498 0.563751C40.6148 0.52873 40.3654 0.609021 40.0399 0.757646C39.7905 0.865271 39.524 1.01133 39.2823 1.14715C39.079 1.25135 38.8988 1.38717 38.7416 1.55288C38.5981 1.7314 38.9628 1.77325 39.1021 1.79888C39.1824 1.8151 39.1311 1.93725 38.9253 2.12004C38.5793 2.43096 38.0011 2.747 37.9515 3.04852C37.9114 3.3509 38.3376 3.29879 38.4691 3.43375C38.5537 3.51831 38.6724 3.56102 38.7484 3.65498C38.8304 3.76004 38.8911 3.8745 38.9304 4.00092C38.9628 4.09744 38.9936 4.20763 39.0987 4.20079C39.2464 4.18713 39.4301 3.97956 39.6129 3.70965C39.7905 3.43546 40.0075 3.13735 40.1698 2.91185C40.5234 2.46598 40.9052 2.04658 41.3161 1.65367L41.8158 1.15996Z" fill="#43A4A4" />
    <path d="M38.1018 6.21406C38.417 5.66483 38.3282 5.34793 38.1377 5.1566C37.9412 5.0131 37.7328 4.88924 37.5116 4.78589L37.1315 4.46216L36.8505 4.22129C36.771 4.1316 36.6745 4.06668 36.5618 4.02654C36.4388 4.00689 36.326 4.03251 36.2235 4.10341C36.0834 4.18968 35.957 4.29304 35.846 4.41433C35.7033 4.55526 35.5658 4.81237 35.4069 4.90462C35.2831 4.97893 35.2335 4.95416 35.184 4.91999C35.0712 4.84312 35.0507 4.67656 34.9371 4.60481C34.8218 4.53135 34.5673 4.67997 34.3119 4.95843C33.8882 5.32572 33.6038 5.77929 33.4569 6.31997C33.4526 6.58904 34.0078 6.60185 34.2436 6.6326C34.3802 6.65139 34.4357 6.82393 34.3264 7.08531C34.153 7.53118 33.62 7.99072 33.819 8.3657C34.0138 8.72616 34.575 8.61341 34.8808 8.76204C35.073 8.85343 35.2839 8.89443 35.471 8.99779C35.664 9.10456 35.8434 9.23097 36.0091 9.37704C36.1142 9.5026 36.2474 9.57349 36.4106 9.59058C36.8539 9.55983 36.8667 8.63904 37.0486 8.15131C37.2109 7.64735 37.4433 7.17926 37.7474 6.7462C37.8704 6.57622 37.9874 6.40624 38.1018 6.21406Z" fill="#43A4A4" />
    <path d="M36.2081 11.7747C36.2261 11.72 36.238 11.6645 36.2449 11.6081C36.2517 11.5517 36.2525 11.4945 36.2483 11.4381C36.244 11.3809 36.2338 11.3254 36.2175 11.2707C36.2022 11.2161 36.1817 11.1631 36.1552 11.1127C36.1287 11.0615 36.0979 11.0145 36.0621 10.9701C36.0262 10.9256 35.9869 10.8846 35.9425 10.8479C35.8989 10.812 35.8519 10.7796 35.8015 10.7531C35.7512 10.7258 35.699 10.7036 35.6444 10.6873C35.2779 10.5618 34.9047 10.4601 34.5246 10.3824L33.7797 10.0937L33.2288 9.88014C33.0622 9.79643 32.8863 9.74262 32.7018 9.71785C32.5489 9.71016 32.4173 9.7597 32.3063 9.86562C32.185 9.98435 32.0928 10.1236 32.0295 10.2816C31.9441 10.4644 31.9262 10.7651 31.781 10.8966C31.746 10.9359 31.7033 10.9615 31.652 10.9735C31.6008 10.9846 31.5512 10.9803 31.5025 10.959C31.3095 10.9017 31.1728 10.7283 30.9798 10.6754C30.7773 10.6198 30.5715 10.8402 30.4118 11.1887C30.1752 11.7166 29.93 12.4042 30.1342 12.7937C30.2777 13.0705 30.9747 12.9568 31.2915 12.9372C31.4726 12.9244 31.64 13.0901 31.6298 13.3771C31.6178 13.8614 31.1822 14.4448 31.5803 14.7685C31.9826 15.0812 32.6326 14.8411 33.0844 14.9206C33.3655 14.9667 33.6516 14.9607 33.9318 15.0205C34.2162 15.0812 34.4938 15.1649 34.7637 15.2716C34.9508 15.3707 35.149 15.41 35.3591 15.3912C35.641 15.3272 35.7153 15.0786 35.711 14.7762C35.7008 14.4738 35.6555 14.1236 35.658 13.8665C35.6666 13.3429 35.7751 12.8407 35.9835 12.3598C36.074 12.171 36.1483 11.9754 36.2081 11.7747Z" fill="#43A4A4" />
    <path d="M35.7956 17.5172C35.7973 16.9193 35.3309 16.6981 34.7595 16.6161C34.1949 16.5341 33.5389 16.6101 33.2587 16.5828L32.2346 16.4777L31.4761 16.4C31.2403 16.359 31.0046 16.3479 30.7663 16.3675C30.5894 16.3897 30.4459 16.47 30.3358 16.6093C30.2358 16.7536 30.1794 16.9133 30.1675 17.0876C30.147 17.29 30.2187 17.589 30.0966 17.7556C30.0633 17.806 30.0189 17.8435 29.9633 17.8675C29.9078 17.8914 29.8497 17.8982 29.7899 17.888C29.538 17.8811 29.3065 17.7445 29.0554 17.7419C28.7906 17.7385 28.6437 18.0101 28.583 18.3953C28.4856 18.9779 28.4711 19.7201 28.8341 20.0481C29.1006 20.2805 29.8702 19.9824 30.235 19.879C30.2939 19.8645 30.3528 19.8628 30.4118 19.8722C30.4716 19.8816 30.5271 19.9021 30.5783 19.9337C30.6296 19.9661 30.6723 20.0063 30.7082 20.055C30.7432 20.1045 30.7671 20.1583 30.7808 20.2164C30.9192 20.6905 30.5963 21.3764 31.1583 21.5805C31.7101 21.7727 32.3969 21.361 32.9435 21.314C33.2818 21.2816 33.6115 21.1978 33.9523 21.1782C34.2965 21.1594 34.6399 21.1637 34.9841 21.191C35.2276 21.2329 35.4684 21.2166 35.7042 21.1423C36.3312 20.8733 35.7819 20.119 35.6743 19.6253C35.6222 19.3751 35.5923 19.1214 35.5846 18.8651C35.5889 18.6148 35.6179 18.3671 35.6717 18.1228C35.7324 17.9255 35.7742 17.7231 35.7956 17.5172Z" fill="#43A4A4" />
    <path d="M36.6745 23.0249C36.5729 22.4577 35.9613 22.386 35.2985 22.468C34.6348 22.5491 33.9104 22.8062 33.5867 22.8601L32.3969 23.0505L31.5154 23.1906C31.2386 23.2171 30.9678 23.2743 30.7039 23.3615C30.5194 23.4264 30.3836 23.5451 30.2948 23.7193C30.223 23.8859 30.2051 24.0576 30.2384 24.2361C30.276 24.4394 30.4519 24.7085 30.3639 24.9058C30.3366 24.9673 30.2956 25.0185 30.2409 25.0578C30.1863 25.0971 30.1248 25.1202 30.0582 25.1262C29.7754 25.1936 29.479 25.127 29.1989 25.1979C28.9059 25.2714 28.8068 25.5848 28.8674 25.9795C28.9076 26.2955 28.9836 26.6022 29.0955 26.8994C29.1989 27.177 29.3834 27.382 29.6473 27.5153C30.0035 27.6613 30.7594 27.1394 31.131 26.9293C31.1874 26.8968 31.248 26.8763 31.3129 26.8678C31.3778 26.8584 31.4419 26.861 31.5051 26.8763C31.5683 26.8917 31.6273 26.9182 31.6811 26.9558C31.734 26.9925 31.7793 27.0386 31.8152 27.0933C32.0859 27.5144 31.9219 28.2712 32.5848 28.2968C33.2297 28.3165 33.8592 27.7143 34.4366 27.5042C34.7919 27.3709 35.1259 27.1915 35.4881 27.0702C35.8528 26.949 36.2235 26.8499 36.6002 26.7738C36.8736 26.7414 37.1272 26.6543 37.3621 26.5116C37.4228 26.474 37.4732 26.4253 37.5133 26.3664C37.5543 26.3075 37.5799 26.2426 37.5928 26.1717C37.6056 26.1016 37.603 26.0316 37.5851 25.9624C37.568 25.8932 37.5372 25.8308 37.4928 25.7745C37.3621 25.5208 37.123 25.2628 37.0051 25.0476C36.8795 24.8298 36.7907 24.5983 36.7394 24.3514C36.6822 24.114 36.6609 23.8722 36.6745 23.628C36.7027 23.4272 36.7027 23.2256 36.6745 23.0249Z" fill="#43A4A4" />
    <path d="M38.7911 28.1251C38.3461 27.0164 36.1526 28.5189 35.4906 28.8247L34.2709 29.3551L33.3663 29.7472C33.0793 29.8531 32.8051 29.9864 32.5446 30.1478C32.3686 30.2571 32.2516 30.4117 32.1935 30.6099C32.1568 30.7876 32.1782 30.9576 32.2576 31.1198C32.3345 31.3095 32.5882 31.5085 32.5386 31.722C32.5207 31.7912 32.4874 31.8519 32.4395 31.904C32.3908 31.9561 32.3328 31.9937 32.2653 32.0159C31.9817 32.1577 31.6537 32.179 31.3735 32.3242C31.0763 32.478 31.0566 32.7914 31.1933 33.1468C31.3923 33.6952 31.7434 34.3025 32.2918 34.3768C32.6872 34.4263 33.3885 33.7456 33.7396 33.45C33.79 33.4047 33.8481 33.3706 33.9113 33.3458C33.9745 33.321 34.0402 33.3091 34.1086 33.3082C34.1769 33.3074 34.2427 33.3185 34.3067 33.3415C34.3708 33.3654 34.4289 33.3988 34.481 33.4432C34.8397 33.7874 34.7945 34.5451 35.4761 34.4366C36.1475 34.3221 36.7155 33.5969 37.2835 33.2664C37.6337 33.0605 37.954 32.8102 38.3128 32.6146C38.6724 32.419 39.0431 32.2456 39.4249 32.0953C39.7059 32.0107 39.9571 31.8724 40.1783 31.6793C40.7523 31.078 39.8554 30.5954 39.5445 30.1828C39.2045 29.7643 38.9961 29.2885 38.9192 28.7547C38.9005 28.5394 38.8577 28.3301 38.7911 28.1251Z" fill="#43A4A4" />
    <path d="M41.9183 33.2202C41.6005 32.6386 40.9317 32.841 40.2518 33.2305C39.5744 33.6226 38.8928 34.2162 38.5665 34.4178L37.3673 35.1575L36.4781 35.705C36.1936 35.8605 35.9254 36.0407 35.6743 36.2457C35.5086 36.379 35.4052 36.5489 35.3617 36.7574C35.3412 36.9307 35.3813 37.0896 35.483 37.2331C35.5872 37.3937 35.8562 37.5534 35.8238 37.7653C35.793 37.9182 35.7076 38.0266 35.5667 38.0916C35.2874 38.2735 34.9534 38.347 34.6775 38.5323C34.6143 38.5759 34.5622 38.6305 34.5203 38.6963C34.4793 38.7612 34.4528 38.8321 34.4409 38.9081C34.4289 38.9842 34.4323 39.0602 34.452 39.1345C34.4708 39.2097 34.5041 39.278 34.5511 39.3386C34.7996 39.8059 35.1686 40.338 35.7324 40.3355C36.1373 40.332 36.8223 39.5983 37.1657 39.2686C37.2144 39.2191 37.2699 39.1781 37.3322 39.1473C37.3937 39.1166 37.4595 39.0969 37.5287 39.0884C37.5979 39.0807 37.6662 39.0841 37.7346 39.0995C37.802 39.1149 37.8652 39.1405 37.9242 39.1781C38.3162 39.4693 38.2778 40.2295 38.9731 40.0655C39.6564 39.905 40.2142 39.1456 40.7839 38.7723C41.1358 38.5434 41.4544 38.2692 41.8149 38.0489C42.1762 37.8285 42.5503 37.632 42.9373 37.4603C43.2243 37.3621 43.4771 37.2066 43.6949 36.9948C44.2621 36.338 43.2909 35.8195 42.9287 35.4009C42.5409 34.9645 42.2736 34.4622 42.1275 33.8959C42.0874 33.6619 42.0173 33.4364 41.9183 33.2202Z" fill="#43A4A4" />
    <path d="M45.5561 38.6809C45.2136 38.0275 44.5226 38.2444 43.835 38.6553C43.1465 39.0704 42.4589 39.6948 42.1267 39.9058L40.9086 40.6839L40.0058 41.2605C39.7171 41.4254 39.4454 41.6133 39.1892 41.826C39.0243 41.9592 38.9184 42.1292 38.8706 42.3359C38.8467 42.5016 38.8834 42.6519 38.9808 42.7878C39.0807 42.9398 39.3455 43.0867 39.3071 43.2917C39.2695 43.4412 39.1798 43.548 39.0388 43.6112C38.7518 43.7923 38.4136 43.8734 38.13 44.0588C38.0668 44.0963 38.0138 44.145 37.9711 44.204C37.9276 44.2638 37.8985 44.3304 37.8832 44.4021C37.8678 44.4739 37.8678 44.5456 37.8823 44.6182C37.8977 44.69 37.9259 44.7558 37.9686 44.8164C38.1821 45.2435 38.5187 45.7338 39.0816 45.7295C39.4787 45.7269 40.2219 45.0436 40.5815 44.731C40.6319 44.6832 40.6891 44.6456 40.7523 44.6165C40.8155 44.5883 40.8813 44.5704 40.9505 44.5644C41.0188 44.5576 41.0871 44.5627 41.1546 44.5789C41.2221 44.596 41.2845 44.6225 41.3434 44.6601C41.7115 44.9616 41.6159 45.6928 42.3248 45.5732C43.0167 45.4622 43.6411 44.7515 44.2373 44.4201C44.6063 44.2176 44.9454 43.9665 45.323 43.7735C45.7022 43.5796 46.0926 43.413 46.4949 43.2738C46.7921 43.2029 47.0578 43.0679 47.2901 42.8689C47.8966 42.2377 46.9459 41.5731 46.5803 41.0914C46.1968 40.5891 45.9286 40.0322 45.7765 39.4189C45.7338 39.1635 45.6603 38.9175 45.5561 38.6809Z" fill="#43A4A4" />
    <path d="M49.018 44.9377C48.7439 44.1861 48.0306 44.2979 47.3029 44.6396C46.5768 44.9796 45.832 45.5305 45.4801 45.7031L44.1886 46.3445L43.2319 46.8186C42.9287 46.9518 42.6383 47.109 42.3607 47.2901C42.1847 47.402 42.0574 47.5549 41.9806 47.7496C41.9344 47.9025 41.9515 48.0494 42.031 48.1887C42.1104 48.3407 42.353 48.5064 42.2889 48.6952C42.23 48.8336 42.1275 48.9241 41.9831 48.966C41.6773 49.1043 41.334 49.1471 41.0307 49.2906C40.9667 49.3162 40.9094 49.352 40.8599 49.4007C40.8095 49.4494 40.7719 49.5058 40.7454 49.5699C40.7198 49.6339 40.707 49.7014 40.7087 49.7706C40.7104 49.8398 40.7249 49.9064 40.754 49.9688C40.7787 50.0858 40.8197 50.1977 40.8753 50.3027C40.9316 50.4087 41.0017 50.5043 41.0845 50.5906C41.1674 50.676 41.2614 50.7486 41.3647 50.8084C41.4689 50.8682 41.5782 50.9118 41.6944 50.9408C42.0814 50.9972 42.9099 50.4659 43.3148 50.2207C43.3711 50.1832 43.4326 50.1558 43.4976 50.1379C43.5633 50.1208 43.63 50.1148 43.6983 50.1191C43.7658 50.1242 43.8307 50.1404 43.893 50.1669C43.9554 50.1943 44.0118 50.2301 44.0622 50.2763C44.3697 50.6299 44.1578 51.3149 44.8642 51.326C45.5484 51.3474 46.2736 50.7725 46.9031 50.5598C47.2935 50.4309 47.6633 50.2481 48.0605 50.1302C48.4586 50.0115 48.8634 49.9235 49.2751 49.8654C49.5741 49.8543 49.8534 49.7732 50.1114 49.6203C50.8033 49.1043 49.9952 48.2339 49.7236 47.6617C49.4135 47.062 49.2256 46.4257 49.1598 45.7543C49.1436 45.4767 49.0958 45.2042 49.018 44.9377Z" fill="#43A4A4" />
    <path d="M51.3585 52.0222C51.2551 51.2329 50.5462 51.1987 49.7928 51.3875C49.0385 51.5754 48.2288 51.9683 47.8624 52.0674L46.5153 52.4373L45.5185 52.7115C45.205 52.7807 44.901 52.8772 44.6046 52.9985C44.4167 53.0736 44.2714 53.1983 44.1664 53.3709C44.0963 53.5135 44.0878 53.6605 44.1399 53.8108C44.1886 53.9756 44.3927 54.1866 44.2996 54.3592C44.221 54.4822 44.1092 54.5505 43.9639 54.5633C43.6496 54.6376 43.3156 54.6103 43.003 54.6914C42.9355 54.7034 42.874 54.729 42.8185 54.7683C42.763 54.8067 42.7177 54.8563 42.6835 54.9152C42.6494 54.9742 42.6289 55.0374 42.622 55.1048C42.6152 55.1732 42.6238 55.239 42.646 55.303C42.6502 55.4252 42.6707 55.5439 42.7075 55.6601C42.7442 55.7762 42.7954 55.8847 42.8621 55.9872C42.9278 56.0897 43.0073 56.1811 43.0978 56.2614C43.1892 56.3425 43.2892 56.41 43.3985 56.4638C43.7641 56.5954 44.6174 56.2315 45.0351 56.0709C45.0957 56.0444 45.1598 56.0299 45.2264 56.0256C45.2922 56.0214 45.3579 56.0291 45.422 56.047C45.4852 56.0649 45.545 56.0931 45.5988 56.1307C45.6535 56.1691 45.7005 56.2153 45.7389 56.2691C45.9695 56.6774 45.6603 57.3154 46.3172 57.4606C46.9595 57.6101 47.7154 57.1805 48.3424 57.0899C48.7276 57.0361 49.1026 56.9268 49.4921 56.8849C49.8816 56.8431 50.2728 56.832 50.664 56.8516C50.9442 56.896 51.2167 56.8678 51.4823 56.7671C52.2126 56.3946 51.6566 55.4047 51.4866 54.8016C51.3234 54.1601 51.2713 53.5101 51.3286 52.8507C51.3687 52.5757 51.379 52.2998 51.3585 52.0222Z" fill="#43A4A4" />
    <path d="M52.2033 59.3116C52.2477 58.5309 51.5942 58.3729 50.8742 58.4216C50.1473 58.4703 49.3341 58.7086 48.9805 58.7402L47.6787 58.8606L46.7144 58.9495C46.4146 58.9614 46.1182 59.0007 45.8252 59.0682C45.6381 59.1083 45.4869 59.204 45.3708 59.3569C45.2913 59.491 45.264 59.6354 45.2879 59.7891C45.3101 59.9625 45.4656 60.2094 45.3554 60.3648C45.2683 60.4742 45.1555 60.522 45.0172 60.5092C44.7182 60.528 44.415 60.4408 44.1169 60.4656C43.8008 60.4921 43.6915 60.7167 43.712 61.0183C43.7214 61.2626 43.7598 61.5026 43.8264 61.7383C43.8965 61.9843 44.0391 62.1774 44.2544 62.3166C44.5687 62.5113 45.3896 62.2893 45.7919 62.1996C45.8534 62.1859 45.9149 62.1825 45.9772 62.1902C46.0396 62.1987 46.0994 62.2167 46.1549 62.2457C46.2113 62.2747 46.26 62.3123 46.3027 62.3584C46.3454 62.4046 46.3787 62.4567 46.4035 62.5148C46.5709 62.9581 46.1865 63.544 46.7571 63.7934C47.308 64.0437 48.0486 63.7388 48.6234 63.749C48.9762 63.7576 49.329 63.7097 49.6835 63.7311C50.0379 63.7516 50.3882 63.802 50.7341 63.8831C50.9775 63.9703 51.2252 63.9856 51.4772 63.9293C51.5558 63.8968 51.6275 63.8524 51.6916 63.7969C51.7557 63.7405 51.8086 63.6756 51.8513 63.6013C51.8932 63.5278 51.9222 63.4492 51.9385 63.3655C51.9538 63.2818 51.9555 63.1972 51.9436 63.1135C51.9547 62.7445 51.8368 62.3311 51.8232 62.0228C51.7933 61.3744 51.859 60.7355 52.0222 60.1077C52.1093 59.8481 52.1699 59.5824 52.2033 59.3116Z" fill="#43A4A4" />
    <path d="M51.6796 66.5063C52.0017 65.0021 49.5587 65.5231 48.9361 65.471L47.7676 65.3933L46.9023 65.3352C46.6349 65.301 46.3676 65.2959 46.0994 65.3173C46.0182 65.319 45.9405 65.3378 45.867 65.3719C45.7936 65.4061 45.7295 65.4539 45.6766 65.5146C45.6227 65.5752 45.5843 65.6453 45.5595 65.7221C45.5356 65.7999 45.5279 65.8784 45.5365 65.9596C45.539 66.1364 45.6356 66.4063 45.5185 66.5455C45.4792 66.59 45.4314 66.6207 45.3742 66.6378C45.3178 66.6549 45.2606 66.6566 45.2033 66.6412C44.9403 66.6173 44.6866 66.4858 44.4218 66.467C44.1425 66.4482 44.0186 66.6592 43.999 66.9675C43.9563 67.2109 43.9622 67.4535 44.0178 67.6944C44.0741 67.9353 44.1741 68.1565 44.3193 68.3572C44.5636 68.5947 45.2965 68.4802 45.6552 68.4444C45.7124 68.4409 45.7688 68.4486 45.8235 68.4666C45.8781 68.4845 45.9277 68.5118 45.9721 68.5486C46.0165 68.5853 46.0524 68.6289 46.0806 68.6801C46.1088 68.7305 46.1258 68.7843 46.1335 68.8415C46.2164 69.3054 45.8183 69.8426 46.2565 70.1612C46.6836 70.4773 47.3576 70.2672 47.8436 70.35C48.1408 70.403 48.4483 70.4004 48.7447 70.4653C49.0411 70.5302 49.329 70.6233 49.6074 70.7455C49.7988 70.8617 50.0055 70.9069 50.2284 70.883C50.5556 70.8104 50.7085 70.5106 50.7768 70.1535C50.8374 69.7948 50.8238 69.3814 50.8656 69.0807C50.9143 68.7672 50.9792 68.4572 51.0629 68.1505C51.1424 67.8422 51.2474 67.5424 51.3781 67.2511C51.502 67.0128 51.6028 66.7642 51.6796 66.5063Z" fill="#43A4A4" />
    <path d="M49.9039 73.3951C50.4753 71.9875 48.3288 72.1993 47.8231 72.0789L46.863 71.8679L46.1524 71.7107C45.9354 71.6466 45.7142 71.6108 45.4878 71.6022C45.3298 71.5988 45.1965 71.6552 45.0889 71.7714C44.9941 71.8918 44.9403 72.0276 44.9275 72.1796C44.9027 72.3573 44.9608 72.6417 44.8378 72.7673C44.8045 72.8066 44.7626 72.8314 44.7122 72.8433C44.6618 72.8544 44.6131 72.8502 44.5662 72.8305C44.3552 72.7784 44.1673 72.6204 43.9537 72.5743C43.7274 72.5256 43.5975 72.7263 43.5429 73.0372C43.413 73.5267 43.4387 74.0084 43.6206 74.4816C43.7812 74.7447 44.3774 74.6866 44.6695 74.6824C44.8344 74.6806 44.9941 74.8455 44.9881 75.1205C44.9779 75.5903 44.579 76.0943 44.8737 76.4419C45.1538 76.7827 45.7116 76.6205 46.078 76.7375C46.3001 76.8101 46.5419 76.8289 46.7622 76.9143C46.9835 76.9989 47.191 77.1099 47.3849 77.2466C47.5122 77.3721 47.6651 77.4319 47.8445 77.4242C48.3954 77.3345 48.5483 76.3352 48.7268 75.7774C48.9207 75.1795 49.1838 74.6132 49.5152 74.0802C49.6681 73.8641 49.7971 73.636 49.9039 73.3951Z" fill="#43A4A4" />
    <path d="M47.0151 79.7749C47.4088 79.1317 47.1739 78.8216 46.7964 78.6602C46.4462 78.5534 46.09 78.4697 45.7287 78.4091L45.0402 78.152L44.5303 77.9615C44.3774 77.8872 44.216 77.8402 44.0468 77.8206C43.9127 77.8146 43.8034 77.8633 43.7188 77.9675C43.6274 78.0862 43.5651 78.2186 43.5326 78.3647C43.5113 78.5654 43.4549 78.7559 43.3635 78.9361C43.3413 78.972 43.3105 78.9942 43.2704 79.0044C43.2294 79.0147 43.1918 79.0096 43.1559 78.9891C43.0116 78.9301 42.8997 78.767 42.7519 78.714C42.5948 78.6568 42.4769 78.8558 42.3889 79.1607C42.224 79.6177 42.1591 80.0884 42.195 80.5735C42.2565 80.8315 42.6716 80.7862 42.8766 80.7905C42.9911 80.7922 43.0688 80.9545 43.003 81.2167C42.8775 81.6558 42.4974 82.1358 42.5939 82.4612C42.6836 82.7816 43.1021 82.6381 43.3174 82.7534C43.4464 82.8234 43.6052 82.8465 43.7291 82.9285C43.8555 83.0122 43.9614 83.1164 44.046 83.242C44.1075 83.3316 44.1596 83.4333 44.3014 83.4119C44.7208 83.3539 45.1752 82.4587 45.4742 81.9411C45.797 81.4038 46.1524 80.8887 46.5402 80.3967C46.7101 80.1986 46.8682 79.991 47.0151 79.7749Z" fill="#43A4A4" />
  </g>
  <defs>
    <clipPath id="clip0_111_1599">
      <rect width="82" height="82" fill="white" />
    </clipPath>
  </defs>
</svg>