<svg width="44" height="44" viewBox="0 0 44 44" fill="none" xmlns="http://www.w3.org/2000/svg">
  <rect width="44" height="44" fill="#313131" />
  <path d="M17.44 8H13C11.9391 8 10.9217 8.42143 10.1716 9.17157C9.42143 9.92172 9 10.9391 9 12V16C9 27.046 17.954 36 29 36H33C34.0609 36 35.0783 35.5786 35.8284 34.8284C36.5786 34.0783 37 33.0609 37 32V29.236C36.9998 28.8647 36.8962 28.5007 36.7009 28.1849C36.5056 27.8692 36.2262 27.614 35.894 27.448L31.062 25.032C30.8057 24.9038 30.5249 24.8322 30.2385 24.822C29.9522 24.8118 29.6669 24.8632 29.4022 24.9728C29.1374 25.0825 28.8993 25.2477 28.704 25.4573C28.5087 25.667 28.3606 25.9162 28.27 26.188L27.676 27.974C27.4895 28.5335 27.1051 29.0057 26.5951 29.3018C26.085 29.5979 25.4844 29.6976 24.906 29.582C22.5649 29.1135 20.4148 27.9624 18.7267 26.274C17.0386 24.5856 15.888 22.4352 15.42 20.094C15.3044 19.5156 15.4041 18.915 15.7002 18.4049C15.9963 17.8948 16.4685 17.5105 17.028 17.324L19.244 16.584C19.7215 16.4247 20.1214 16.0912 20.3639 15.65C20.6063 15.2089 20.6735 14.6925 20.552 14.204L19.38 9.514C19.2717 9.08151 19.0219 8.69762 18.6704 8.42331C18.3189 8.149 17.8859 8.00001 17.44 8Z" stroke="white" />
</svg>