<svg width="68" height="68" viewBox="0 0 68 68" fill="none" xmlns="http://www.w3.org/2000/svg">
<circle cx="34" cy="34" r="34" fill="white"/>
<path d="M28.192 25.67L41.76 33.303C41.8836 33.3726 41.9865 33.4739 42.058 33.5963C42.1296 33.7188 42.1673 33.8581 42.1673 34C42.1673 34.1418 42.1296 34.2812 42.058 34.4036C41.9865 34.5261 41.8836 34.6274 41.76 34.697L28.192 42.33C28.0702 42.3984 27.9326 42.4338 27.7929 42.4326C27.6532 42.4313 27.5163 42.3935 27.3958 42.323C27.2752 42.2524 27.1752 42.1514 27.1058 42.0302C27.0364 41.909 26.9999 41.7717 27 41.632V26.368C27.0001 26.2284 27.0367 26.0912 27.1062 25.9701C27.1757 25.849 27.2757 25.7482 27.3962 25.6778C27.5167 25.6073 27.6536 25.5696 27.7932 25.5684C27.9328 25.5672 28.0703 25.6016 28.192 25.67Z" fill="black"/>
</svg>
