<svg width="44" height="44" viewBox="0 0 44 44" fill="none" xmlns="http://www.w3.org/2000/svg">
<rect width="44" height="44" fill="#313131"/>
<g clip-path="url(#clip0_164_5313)">
<path d="M32.6066 11.3934C29.7735 8.56023 26.0066 7 22 7C17.9934 7 14.2265 8.56023 11.3934 11.3934C8.56023 14.2265 7 17.9934 7 22C7 26.0066 8.56023 29.7735 11.3934 32.6066C14.2265 35.4398 17.9934 37 22 37C26.0066 37 29.7735 35.4398 32.6066 32.6066C35.4397 29.7734 37 26.0066 37 22C37 17.9934 35.4398 14.2265 32.6066 11.3934ZM22 36.0527C14.2513 36.0527 7.94734 29.7487 7.94734 22C7.94734 14.2513 14.2513 7.94734 22 7.94734C29.7487 7.94734 36.0527 14.2513 36.0527 22C36.0527 29.7487 29.7487 36.0527 22 36.0527Z" fill="white"/>
<path d="M30.4954 12.7795C30.35 12.6699 30.1546 12.6535 29.9928 12.7372L11.677 22.2109C11.5187 22.2927 11.4197 22.4566 11.4209 22.6349C11.4221 22.8131 11.5233 22.9756 11.6828 23.0553L16.4736 25.4506V30.1971C16.4736 30.3213 16.5159 30.4442 16.6014 30.5344C16.6959 30.6342 16.8216 30.6842 16.9474 30.6842C17.0266 30.6842 17.1058 30.6644 17.1775 30.6246L22.6585 27.5795L26.8537 29.3774C26.9429 29.4157 27.0417 29.4315 27.1372 29.4137C27.3338 29.377 27.4799 29.2264 27.5172 29.0403L28.5786 23.7331C28.6372 23.4399 28.413 23.1665 28.1141 23.1665C27.8883 23.1664 27.6939 23.3257 27.6496 23.5471L26.7026 28.282L22.8182 26.6172C22.6836 26.5595 22.5297 26.5674 22.4015 26.6385L17.421 29.4054V25.1579C17.421 24.9784 17.3197 24.8145 17.1592 24.7342L12.9395 22.6244L29.5526 14.0314L28.1109 21.2397C28.0523 21.5329 28.2765 21.8063 28.5755 21.8063C28.8012 21.8063 28.9956 21.6469 29.04 21.4255L30.6749 13.2507C30.7106 13.0722 30.6408 12.889 30.4954 12.7795Z" fill="white"/>
<path d="M27.4241 16.6537C27.2752 16.4653 27.0087 16.4179 26.8041 16.544L18.5936 21.5966C18.4535 21.6828 18.3682 21.8356 18.3682 22.0001V27.0527C18.3681 27.2724 18.5192 27.4632 18.7329 27.5137C18.7693 27.5223 18.8058 27.5265 18.8419 27.5265C19.0181 27.5265 19.1839 27.4277 19.2654 27.2646L21.1258 23.5439L27.3873 17.2824C27.5571 17.1125 27.5729 16.8423 27.4241 16.6537ZM20.4015 22.9282C20.3656 22.9642 20.3356 23.0058 20.3129 23.0513L19.3155 25.0461V22.2647L23.8645 19.4653L20.4015 22.9282Z" fill="white"/>
</g>
<defs>
<clipPath id="clip0_164_5313">
<rect width="30" height="30" fill="white" transform="translate(7 7)"/>
</clipPath>
</defs>
</svg>
