<svg width="44" height="44" viewBox="0 0 44 44" fill="none" xmlns="http://www.w3.org/2000/svg">
  <rect width="44" height="44" fill="#313131" />
  <path d="M22 7C19.3739 7.00068 16.794 7.69055 14.5181 9.00067C12.2423 10.3108 10.3501 12.1953 9.03082 14.4657C7.71154 16.7362 7.01131 19.3132 7.00014 21.939C6.98896 24.5649 7.66723 27.1477 8.96714 29.4293L7.61648 34.1565C7.52831 34.4651 7.52428 34.7917 7.60481 35.1024C7.68534 35.4131 7.8475 35.6967 8.07449 35.9236C8.30147 36.1506 8.58502 36.3127 8.89575 36.3932C9.20648 36.4737 9.53309 36.4696 9.84173 36.3815L14.5692 35.031C16.5651 36.1688 18.7957 36.833 21.089 36.9724C23.3822 37.1117 25.6768 36.7225 27.7959 35.8348C29.9149 34.947 31.8016 33.5844 33.3106 31.8521C34.8196 30.1198 35.9106 28.064 36.4992 25.8434C37.0879 23.6227 37.1586 21.2966 36.7059 19.0443C36.2532 16.792 35.2891 14.6738 33.8881 12.853C32.4871 11.0323 30.6866 9.5576 28.6254 8.5428C26.5642 7.52799 24.2975 7.00016 22 7ZM22 35.798C19.5215 35.7997 17.0885 35.133 14.9571 33.8681C14.8868 33.8263 14.8088 33.7992 14.7277 33.7887C14.6466 33.7782 14.5642 33.7844 14.4856 33.8069L9.51199 35.2278C9.40911 35.2572 9.30023 35.2585 9.19666 35.2317C9.09308 35.2049 8.99857 35.1508 8.92292 35.0751C8.84726 34.9995 8.79322 34.905 8.7664 34.8014C8.73957 34.6978 8.74093 34.5889 8.77034 34.4861L10.1912 29.513C10.2137 29.4344 10.2198 29.352 10.2093 29.2709C10.1988 29.1898 10.1718 29.1117 10.13 29.0415C8.57565 26.4229 7.93103 23.3639 8.29656 20.3408C8.66209 17.3178 10.0172 14.5005 12.1509 12.3278C14.2846 10.1552 17.077 8.74918 20.0931 8.32882C23.1092 7.90846 26.1797 8.49737 28.8262 10.0038C31.4727 11.5102 33.5467 13.8496 34.725 16.6575C35.9033 19.4654 36.1198 22.5841 35.3408 25.5278C34.5617 28.4716 32.8309 31.075 30.4179 32.9326C28.0049 34.7902 25.0453 35.7977 22 35.798ZM29.5767 24.7802L26.5078 23.0267C26.2301 22.8682 25.9153 22.7865 25.5956 22.7899C25.2759 22.7933 24.9629 22.8817 24.6887 23.046L22.6177 24.2885C21.3639 23.6534 20.3455 22.6349 19.7103 21.3813L20.9529 19.3105C21.1172 19.0362 21.2056 18.7233 21.209 18.4036C21.2124 18.084 21.1307 17.7692 20.9722 17.4915L19.2186 14.4227C19.0754 14.1729 18.8688 13.9652 18.6198 13.8207C18.3707 13.6762 18.0879 13.5999 17.7999 13.5996C16.5301 13.5999 15.3121 14.1032 14.4125 14.9994C13.5129 15.8956 13.005 17.1116 12.9999 18.3814C12.9976 20.0374 13.3218 21.6776 13.9539 23.2083C14.5861 24.7389 15.5138 26.1299 16.6841 27.3018C17.8543 28.4736 19.2441 29.4032 20.7739 30.0375C22.3038 30.6718 23.9436 30.9983 25.5998 30.9984H25.6178C26.8876 30.9933 28.1038 30.4854 29 29.5859C29.8962 28.6864 30.3996 27.4685 30.3999 26.1987C30.3996 25.9108 30.3233 25.628 30.1788 25.3789C30.0342 25.1299 29.8266 24.9234 29.5767 24.7802ZM25.6161 29.7985H25.5999C24.1014 29.7985 22.6177 29.5031 21.2336 28.9292C19.8494 28.3553 18.592 27.5142 17.5332 26.454C16.4744 25.3938 15.635 24.1352 15.0631 22.7504C14.4911 21.3655 14.1978 19.8814 14.1999 18.3831C14.2041 17.4312 14.5852 16.5196 15.2599 15.848C15.9346 15.1764 16.8479 14.7993 17.7999 14.7995C17.8764 14.7996 17.9515 14.8198 18.0176 14.8582C18.0838 14.8966 18.1386 14.9517 18.1767 15.018L19.9303 18.0869C19.9831 18.1795 20.0104 18.2844 20.0092 18.391C20.0081 18.4975 19.9786 18.6018 19.9239 18.6932L18.5155 21.0403C18.4657 21.1233 18.4367 21.2171 18.431 21.3136C18.4253 21.4102 18.4431 21.5068 18.4828 21.595C19.2659 23.3378 20.6611 24.7329 22.404 25.516C22.4923 25.5557 22.5888 25.5735 22.6854 25.5677C22.7821 25.562 22.8759 25.533 22.9588 25.4832L25.3059 24.075C25.3974 24.0202 25.5017 23.9907 25.6083 23.9896C25.7148 23.9884 25.8198 24.0156 25.9124 24.0684L28.9815 25.8221C29.0478 25.8601 29.1029 25.915 29.1413 25.9811C29.1796 26.0472 29.1999 26.1223 29.1999 26.1987C29.2001 27.1506 28.823 28.0639 28.1514 28.7385C27.4797 29.4132 26.5681 29.7943 25.6161 29.7985Z" fill="white" />
</svg>