<svg width="38" height="43" viewBox="0 0 38 43" fill="none" xmlns="http://www.w3.org/2000/svg">
  <path d="M24.9806 0.952448L1.00413 9.68622V34.9746L12.5363 38.1716V14.4305L12.5615 14.4215C16.7619 12.9964 20.892 11.2892 25.0924 9.86413L37.8846 5.2187L37.8324 42.0443H36.8282L36.8102 6.78934L13.5404 15.1457V20.0463C16.6375 21.0024 19.7328 21.9584 22.8299 22.9109V22.9396C22.8065 28.1727 22.7795 33.404 22.7542 38.637L22.738 42.0353C15.1737 39.9381 7.56251 37.832 0 35.7294V35.4329V8.98716C8.22592 5.99324 16.4518 2.99931 24.6759 0L25.0167 0.939868L24.9806 0.952448ZM13.5404 21.0904V38.4484L21.7447 40.7216L21.8276 23.6459L13.5422 21.0904H13.5404Z" fill="white" />
</svg>